<?xml version="1.0" encoding="utf-8"?>
<!-- Generator: Adobe Illustrator 16.0.2, SVG Export Plug-In . SVG Version: 6.00 Build 0)  -->
<!DOCTYPE svg PUBLIC "-//W3C//DTD SVG 1.1//EN" "http://www.w3.org/Graphics/SVG/1.1/DTD/svg11.dtd">
<svg version="1.1" id="Layer_1" xmlns="http://www.w3.org/2000/svg" xmlns:xlink="http://www.w3.org/1999/xlink" x="0px" y="0px"
	 width="612px" height="792px" viewBox="0 0 612 792" enable-background="new 0 0 612 792" xml:space="preserve">
<g>
	<path class="path" fill-rule="evenodd" clip-rule="evenodd" fill="none" stroke="#10100F" stroke-width="4" stroke-miterlimit="10" d="
		M398.329,376.361c-2.53-18.919-4.993-37.072-7.368-55.235c-0.955-7.296-1.584-14.637-2.695-21.906
		c-0.185-1.208-1.929-2.819-3.211-3.113c-7.031-1.613-14.136-2.912-21.229-4.245c-9.309-1.749-18.635-3.406-27.945-5.147
		c-14.04-2.626-28.079-5.258-42.106-7.949c-10.095-1.938-20.144-4.128-30.272-5.854c-2.244-0.383-5.103,0.091-7.062,1.229
		c-15.835,9.203-31.354,18.962-47.356,27.856c-4.981,2.768-3.987,7.003-4.654,10.662c-1.844,10.114-2.876,20.374-4.342,30.559
		c-1.368,9.508-2.879,18.994-4.991,28.743c-1.272-3.919-2.617-7.817-3.806-11.763c-6.163-20.438-12.296-40.888-18.418-61.339
		c-2.787-9.309-5.671-18.595-8.161-27.984c-0.473-1.783,0.242-4.255,1.186-5.984c9.806-17.968,19.739-35.868,29.754-53.721
		c0.75-1.336,2.239-2.74,3.659-3.142c12.429-3.525,24.937-6.77,37.388-10.218c9.382-2.598,18.63-5.741,28.107-7.9
		c4.17-0.95,8.793-0.391,13.152,0.057c14.123,1.45,28.217,3.176,42.325,4.775c21.538,2.441,43.076,4.882,64.619,7.278
		c3.554,0.395,6.185,1.481,8.507,4.761c14.113,19.936,28.531,39.656,42.966,59.362c1.931,2.635,2.379,4.773,1.141,7.99
		c-12.187,31.658-24.16,63.399-36.211,95.11C400.471,371.433,399.499,373.571,398.329,376.361z"/>
	<path class="path" fill-rule="evenodd" clip-rule="evenodd" fill="none" stroke="#10100F" stroke-width="4" stroke-miterlimit="10" d="
		M329.408,523.811c5.667-1.915,11.407-3.647,16.947-5.877c1.314-0.529,2.149-2.632,2.885-4.164
		c11.557-24.104,23.061-48.235,34.579-72.358c0.171-0.355,0.372-0.697,0.558-1.045c0.345,0.171,0.688,0.34,1.033,0.51
		c-1.052,3.245-2.049,6.509-3.165,9.731c-9.002,26.012-18.028,52.016-27.045,78.022c-1.573,4.539-2.984,9.145-4.792,13.589
		c-0.571,1.403-1.979,2.854-3.367,3.476c-11.088,4.967-22.251,9.766-33.428,14.532c-1.171,0.499-2.575,0.619-3.874,0.627
		c-8.215,0.055-16.469-0.462-24.636,0.168c-7.899,0.608-14.632-2.5-21.627-4.996c-8.169-2.915-16.313-5.908-24.377-9.098
		c-1.354-0.535-2.833-2.051-3.263-3.424c-4.861-15.531-9.482-31.139-14.261-46.697c-5.485-17.86-11.065-35.691-16.583-53.541
		c-0.108-0.35,0.038-0.777,0.161-2.503c1.699,3.248,2.896,5.464,4.027,7.713c12.021,23.909,24.057,47.811,36.01,71.753
		c1.279,2.561,2.723,4.391,5.817,4.732c3.266,0.359,6.486,1.136,9.727,1.729c0.514-0.126,1.027-0.253,1.54-0.38
		c0.562,0.554,1.035,1.433,1.696,1.61c10.562,2.849,21.136,5.656,31.746,8.316c1.146,0.287,2.601-0.227,3.805-0.663
		c9.394-3.403,18.76-6.877,28.134-10.329C328.24,524.767,328.824,524.288,329.408,523.811z"/>
	<path class="path" fill-rule="evenodd" clip-rule="evenodd" fill="none" stroke="#10100F" stroke-width="4" stroke-miterlimit="10" d="
		M329.408,523.811c-0.584,0.478-1.168,0.956-1.753,1.435c0.432-1.071,1.176-2.122,1.244-3.215c0.561-8.848,0.99-17.703,1.469-26.556
		c0.102-1.874,0.255-3.744,0.363-5.617c0.451-7.731,0.895-15.464,1.307-22.607c-25.377-7.281-50.034-6.642-74.74,0.806
		c1.472,18.811,2.948,37.671,4.424,56.53c-0.317-0.054-0.634-0.108-0.951-0.162c-3.897-17.744-7.801-35.487-11.683-53.234
		c-0.424-1.942-1.271-2.977-3.525-2.859c-3.716,0.192-7.45,0.052-11.475-0.826c4.317-2.288,8.701-4.462,12.94-6.887
		c11.004-6.293,23.635-8.195,35.103-13.109c9.656-4.139,18.536-4.008,28.274-0.036c14.376,5.863,29.21,10.604,43.842,15.846
		c0.33,0.118,0.57,0.487,1.61,1.415c-4.544,0-8.323,0.181-12.073-0.063c-2.478-0.162-3.354,1.024-3.744,3.072
		c-2.998,15.736-5.99,31.474-8.98,47.212C330.499,517.903,329.958,520.858,329.408,523.811z"/>
	<path class="path" fill-rule="evenodd" clip-rule="evenodd" fill="none" stroke="#10100F" stroke-width="4" stroke-miterlimit="10" d="
		M318.961,489.381c-7.998,12.769-15.997,25.536-24.535,39.165c-8.489-13.238-16.577-25.853-25.233-39.351
		c6.877,2.553,12.955,4.478,18.736,7.064c4.296,1.922,8.056,1.722,12.241-0.162c5.943-2.676,12.087-4.902,18.146-7.322
		C318.531,488.978,318.747,489.18,318.961,489.381z"/>
</g>
</svg>
